<svg xmlns="http://www.w3.org/2000/svg" viewBox="0 0 256 160">
  <defs>
    <linearGradient id="g1" x1="0" y1="0" x2="1" y2="1">
      <stop offset="0" stop-color="#4fb3ff"/>
      <stop offset="1" stop-color="#1f6bff"/>
    </linearGradient>
    <linearGradient id="g2" x1="1" y1="0" x2="0" y2="1">
      <stop offset="0" stop-color="#8dd6ff"/>
      <stop offset="1" stop-color="#4fb3ff"/>
    </linearGradient>
  </defs>

  <rect width="256" height="160" fill="none"/>

  <!-- Cloud 1 -->
  <g transform="translate(20,30)">
    <path d="M50 60c-18 0-32-12-32-28 0-12 9-24 22-27 5-13 19-21 34-21 19 0 35 12 40 28 2-0 4-0 6-0 18 0 32 14 32 30 0 17-14 30-32 30H50z" fill="url(#g1)"/>
    <path d="M48 58h120" stroke="#ffffff" stroke-opacity="0.35" stroke-width="3" stroke-linecap="round"/>
  </g>

  <!-- Cloud 2 -->
  <g transform="translate(90,54)">
    <path d="M40 50c-15 0-26-10-26-23 0-10 7-19 18-22 4-10 15-17 27-17 15 0 28 10 32 22 2 0 3 0 4 0 14 0 26 11 26 24 0 13-12 24-26 24H40z" fill="url(#g2)"/>
  </g>

  <!-- Gear -->
  <g transform="translate(150,78)">
    <circle cx="28" cy="28" r="12" fill="#e6f2ff"/>
    <path d="M28 2l6 4 7-2 4 6 7 0 2 7 6 4-2 7 4 6-6 4-2 7-7 0-4 6-7-2-6 4-6-4-7 2-4-6-7 0-2-7-6-4 2-7-4-6 6-4 2-7 7 0 4-6 7 2 6-4z" fill="#7a8aa6" opacity="0.85"/>
    <circle cx="28" cy="28" r="8" fill="#c9dbf5"/>
  </g>

  <!-- Small nodes motif -->
  <g transform="translate(22,22)" fill="#a7c8ff">
    <circle cx="4" cy="4" r="3"/>
    <circle cx="18" cy="10" r="2"/>
    <circle cx="8" cy="18" r="2"/>
    <path d="M4 4L18 10M8 18L18 10" stroke="#a7c8ff" stroke-width="1"/>
  </g>
</svg>
